#!OML:ASF \\sashay\E\Suitcase\Project 1\Capture day 1\Session 1\Male1.ASF
:FULLY-SPECIFIED
:DEGREES
679
root 1.35358 16.981 -2.15637 -0.0442175 3.74915 3.15553
lowerback 1.87196 -0.990861 -5.72843
upperback -0.0185695 -1.44057 0.515857
thorax -0.915226 -0.692897 3.78092
lowerneck -14.374 0.686326 -0.728259
upperneck 28.029 3.90066 -8.96506
head 11.7516 0.559823 -2.6559
rclavicle -4.7522e-015 1.78906e-015
rhumerus -22.9238 -26.1698 -71.6703
rradius 17.4111
rwrist -8.01465
rhand -15.9239 22.668
rfingers 7.12502
rthumb 10.2735 -7.06105
lclavicle -4.7522e-015 1.78906e-015
lhumerus -18.8614 -21.5108 89.7391
lradius 39.6617
lwrist -3.93082
lhand -0.884036 43.3958
lfingers 7.12502
lthumb 24.7434 71.8155
rfemur -31.419 -0.680662 13.2973
rtibia 22.3362
rfoot -11.6734 -11.0854
rtoes 1.05516
lfemur 4.70209 -5.28523 -32.168
ltibia 18.5661
lfoot -24.303 0.849437
ltoes 6.27538
680
root 1.33434 16.9813 -2.06042 0.0415478 4.01602 2.46907
lowerback 1.91717 -1.05335 -5.21162
upperback -0.28592 -1.51931 0.754295
thorax -1.21435 -0.720318 3.74337
lowerneck -14.5867 0.71537 -0.447489
upperneck 28.5058 3.94215 -9.03627
head 11.9907 0.579468 -2.74253
rclavicle -3.91901e-015 -1.19271e-014
rhumerus -22.8982 -24.8499 -71.9927
rradius 18.1593
rwrist -9.26162
rhand -16.0157 21.7019
rfingers 7.12502
rthumb 10.1851 -8.03156
lclavicle -3.91901e-015 -1.19271e-014
lhumerus -19.2353 -22.7763 90.3458
lradius 39.554
lwrist -3.17256
lhand -1.46484 43.4479
lfingers 7.12502
lthumb 24.1866 71.9428
rfemur -31.3038 -0.210133 13.905
rtibia 21.0444
rfoot -11.9269 -12.7324
rtoes -0.954294
lfemur 5.10566 -5.74567 -31.3371
ltibia 18.1596
lfoot -24.1549 0.272794
ltoes 9.39964
681
root 1.33718 16.9699 -1.95989 0.399259 4.418 3.25024
lowerback 1.38826 -1.11953 -5.92985
upperback -0.328188 -1.59392 0.505798
thorax -0.9416 -0.760668 3.87964
lowerneck -13.9632 0.338204 -1.21338
upperneck 28.1037 3.28852 -8.20256
head 11.6379 0.334776 -2.3713
rclavicle -1.95446e-015 1.2921e-014
rhumerus -22.3799 -25.0416 -72.0401
rradius 18.152
rwrist -9.34982
rhand -15.9196 22.2161
rfingers 7.12502
rthumb 10.2777 -7.51281
lclavicle -1.95446e-015 1.2921e-014
lhumerus -19.3573 -22.7878 90.7474
lradius 39.7019
lwrist -3.80926
lhand -0.486201 43.9222
lfingers 7.12502
lthumb 25.1246 72.2891
rfemur -31.5747 -0.947381 13.0729
rtibia 20.1098
rfoot -12.275 -13.3438
rtoes -1.20706
lfemur 5.66859 -6.36335 -32.274
ltibia 17.4396
lfoot -23.9893 0.272922
ltoes 11.0291
682
root 1.32333 16.9617 -1.85678 0.674277 4.92462 2.92418
lowerback 1.21063 -1.29108 -5.65507
upperback -0.583497 -1.8124 0.64529
thorax -1.0847 -0.861247 3.87211
lowerneck -14.0372 0.426804 -0.84749
upperneck 28.3683 3.4231 -8.46076
head 11.7725 0.39303 -2.52145
rclavicle -1.89335e-014 1.03368e-014
rhumerus -22.3507 -23.9883 -72.2118
rradius 18.7371
rwrist -10.0785
rhand -16.1011 22.3468
rfingers 7.12502
rthumb 10.1027 -7.39069
lclavicle -1.89335e-014 1.03368e-014
lhumerus -19.778 -23.3486 91.2551
lradius 39.5699
lwrist -4.42344
lhand -0.415757 43.5356
lfingers 7.12502
lthumb 25.1921 71.893
rfemur -31.5201 -0.408311 13.0201
rtibia 18.952
rfoot -13.6339 -15.0265
rtoes -0.431993
lfemur 5.79476 -6.51061 -31.796
ltibia 17.1965
lfoot -23.9324 0.18507
ltoes 9.20741
683
root 1.31624 16.9576 -1.74458 0.658062 5.179 2.84308
lowerback 1.05718 -1.31517 -5.53118
upperback -0.613629 -1.83414 0.616839
thorax -1.03183 -0.874019 3.76955
lowerneck -14.2156 0.365715 -0.495618
upperneck 28.6431 3.22711 -8.32305
head 11.9049 0.34852 -2.56794
rclavicle 1.39553e-014 9.34288e-015
rhumerus -21.9472 -24.4195 -72.1517
rradius 18.7563
rwrist -9.84269
rhand -16.0599 22.0729
rfingers 7.12502
rthumb 10.1424 -7.66263
lclavicle 1.39553e-014 9.34288e-015
lhumerus -20.0323 -24.1375 91.6262
lradius 39.6606
lwrist -4.42284
lhand 0.352574 43.4668
lfingers 7.12502
lthumb 25.928 71.7186
rfemur -31.3327 -0.564614 13.0984
rtibia 18.2245
rfoot -14.237 -16.1351
rtoes -3.28164
lfemur 6.49421 -6.52172 -31.6939
ltibia 16.7661
lfoot -23.8938 0.378572
ltoes 7.25468
684
root 1.31288 16.9538 -1.63862 0.826828 5.68145 2.571
lowerback 0.987661 -1.4326 -5.27406
upperback -0.758648 -1.98482 0.764031
thorax -1.12945 -0.945008 3.77957
lowerneck -14.5441 0.214223 -1.20301
upperneck 28.8536 3.03966 -7.6822
head 12.0276 0.254586 -2.23714
rclavicle 6.76489e-015 1.82882e-014
rhumerus -21.5413 -23.9677 -72.1672
rradius 18.9461
rwrist -10.3308
rhand -15.8207 21.9287
rfingers 7.12502
rthumb 10.3731 -7.79541
lclavicle 6.76489e-015 1.82882e-014
lhumerus -20.5269 -24.415 92.2805
lradius 39.8351
lwrist -4.56198
lhand 0.2394 43.076
lfingers 7.12502
lthumb 25.8197 71.3436
rfemur -31.2189 -0.752397 13.2538
rtibia 17.4437
rfoot -14.4794 -17.3234
rtoes -4.76373
lfemur 6.87753 -6.63076 -31.3125
ltibia 16.5224
lfoot -23.9768 -0.0622149
ltoes 6.83626
685
root 1.29677 16.9387 -1.54437 1.37485 6.01035 3.06372
lowerback 0.63567 -1.49969 -5.734
upperback -0.963183 -2.06688 0.568668
thorax -1.12613 -0.978292 3.82983
lowerneck -14.1856 0.0459021 -1.20175
upperneck 28.4444 2.62769 -7.29657
head 11.7633 0.137506 -2.13657
rclavicle 6.45118e-015 3.97569e-016
rhumerus -21.2764 -24.5729 -72.0747
rradius 18.9155
rwrist -9.9418
rhand -15.6776 22.6083
rfingers 7.12502
rthumb 10.5112 -7.10884
lclavicle 6.45118e-015 3.97569e-016
lhumerus -20.5599 -25.33 92.5428
lradius 39.5732
lwrist -4.87953
lhand 0.489242 43.0854
lfingers 7.12502
lthumb 26.0589 71.318
rfemur -31.5372 -0.477033 12.454
rtibia 16.6758
rfoot -15.2781 -18.8825
rtoes -4.39356
lfemur 6.71693 -7.1199 -31.7878
ltibia 16.6503
lfoot -24.086 -0.14069
ltoes 8.24941
686
root 1.28887 16.9257 -1.42113 1.41232 6.21407 3.06689
lowerback 0.52624 -1.5009 -5.76226
upperback -1.17891 -2.06788 0.579255
thorax -1.28595 -0.968727 3.85737
lowerneck -13.7345 -0.106055 -1.35378
upperneck 28.5762 2.31875 -6.89519
head 11.7002 0.0378232 -2.00354
rclavicle -6.78974e-015 1.49089e-014
rhumerus -21.5474 -23.8271 -72.0306
rradius 19.56
rwrist -10.7149
rhand -15.7602 22.0577
rfingers 7.12502
rthumb 10.4315 -7.66351
lclavicle -6.78974e-015 1.49089e-014
lhumerus -21.523 -25.4159 93.1668
lradius 39.8438
lwrist -5.82339
lhand 1.57822 43.0327
lfingers 7.12502
lthumb 27.1011 71.1074
rfemur -31.2516 -0.752119 12.5758
rtibia 16.1656
rfoot -16.1459 -19.7983
rtoes -5.48408
lfemur 7.12491 -7.00273 -31.7147
ltibia 16.7392
lfoot -24.4538 -0.203227
ltoes 7.90541
687
root 1.28131 16.9325 -1.32827 1.5619 6.78776 2.6404
lowerback 0.455384 -1.72096 -5.34077
upperback -1.15537 -2.34946 0.743177
thorax -1.20008 -1.11632 3.78921
lowerneck -14.2656 -0.0593295 -0.763377
upperneck 28.8989 2.51388 -7.69329
head 11.9634 0.0707877 -2.39251
rclavicle -2.56619e-014 -5.76476e-015
rhumerus -20.7872 -23.7613 -72.237
rradius 19.5223
rwrist -10.734
rhand -15.8004 22.5075
rfingers 7.12502
rthumb 10.3927 -7.21565
lclavicle -2.56619e-014 -5.76476e-015
lhumerus -21.3402 -25.4429 93.3252
lradius 39.7334
lwrist -6.20674
lhand 2.08882 42.8895
lfingers 7.12502
lthumb 27.5895 70.8871
rfemur -31.1054 -0.525568 12.8257
rtibia 15.8326
rfoot -18.1216 -21.1407
rtoes -2.71198
lfemur 7.55227 -7.39423 -31.1565
ltibia 16.8238
lfoot -24.4716 -0.765538
ltoes 11.6137
688
root 1.27836 16.9163 -1.21546 1.75838 7.13081 3.29399
lowerback 0.37379 -1.72215 -5.81831
upperback -1.30369 -2.3584 0.479681
thorax -1.29953 -1.11057 3.78518
lowerneck -13.7617 -0.350532 -1.52292
upperneck 28.5075 1.92712 -6.63099
head 11.6593 -0.122494 -1.92822
rclavicle -2.21272e-014 -1.31198e-014
rhumerus -20.8112 -23.6528 -72.1374
rradius 19.7932
rwrist -11.098
rhand -15.7088 22.6729
rfingers 7.12502
rthumb 10.481 -7.04584
lclavicle -2.21272e-014 -1.31198e-014
lhumerus -22.1118 -26.2565 93.8917
lradius 39.9108
lwrist -6.48664
lhand 2.44336 42.6049
lfingers 7.12502
lthumb 27.9285 70.5479
rfemur -31.0925 -1.86658 12.6138
rtibia 15.7205
rfoot -17.687 -21.5117
rtoes -4.97631
lfemur 8.03821 -7.73284 -31.9255
ltibia 16.7188
lfoot -24.5432 -0.383102
ltoes 9.94609
689
root 1.27216 16.9169 -1.09681 2.08226 7.46501 3.10286
lowerback -0.0470174 -1.80117 -5.5539
upperback -1.40967 -2.43712 0.508597
thorax -1.17296 -1.1542 3.65424
lowerneck -14.0182 -0.336138 -1.11653
upperneck 28.7848 1.93518 -6.85197
head 11.8243 -0.113369 -2.0897
rclavicle 1.70023e-014 9.54166e-015
rhumerus -20.7538 -23.2043 -72.1766
rradius 20.3468
rwrist -11.4985
rhand -15.4521 21.67
rfingers 7.12502
rthumb 10.7287 -8.03608
lclavicle 1.70023e-014 9.54166e-015
lhumerus -22.2793 -26.5678 94.1112
lradius 39.9343
lwrist -6.74343
lhand 3.93704 43.4969
lfingers 7.12502
lthumb 29.3556 71.1989
rfemur -31.1945 -2.55497 13.1671
rtibia 15.673
rfoot -17.8102 -22.2019
rtoes -5.03484
lfemur 8.21331 -8.3623 -31.6875
ltibia 16.7459
lfoot -24.4635 -0.988703
ltoes 14.3537
690
root 1.26301 16.8891 -0.988136 2.16464 7.79898 3.1463
lowerback -0.0663808 -1.86022 -5.53881
upperback -1.38692 -2.51388 0.511429
thorax -1.1311 -1.19445 3.64745
lowerneck -13.9578 -0.479886 -0.948645
upperneck 28.6076 1.65774 -6.82659
head 11.7299 -0.211362 -2.14248
rclavicle 8.32411e-015 7.95139e-015
rhumerus -20.1498 -22.8354 -72.3324
rradius 20.2933
rwrist -12.2581
rhand -15.7216 21.7732
rfingers 7.12502
rthumb 10.4687 -7.94612
lclavicle 8.32411e-015 7.95139e-015
lhumerus -22.2536 -26.3671 94.368
lradius 39.6726
lwrist -7.32553
lhand 4.24399 42.6379
lfingers 7.12502
lthumb 29.6486 70.2882
rfemur -31.1218 -3.44672 13.5991
rtibia 15.7633
rfoot -17.9582 -22.7287
rtoes -4.70194
lfemur 8.45727 -7.92992 -31.6599
ltibia 16.5734
lfoot -24.4118 -0.301714
ltoes 8.38876
